<svg width="94.738" height="81" xmlns="http://www.w3.org/2000/svg">
 <defs>
  <style>.a{fill:url(#a);}</style>
 </defs>
 <g>
  <title>background</title>
  <rect fill="none" id="canvas_background" height="602" width="802" y="-1" x="-1"/>
 </g>
 <g>
  <title>Layer 1</title>
  <g id="svg_1">
   <path id="svg_2" d="m25.8085,42.70661c-0.019,0.26 -0.032,0.526 -0.032,0.792l0,4.622a9.007,9.007 0 0 0 3.2,6.908l9.614,8.037a13.673,13.673 0 0 0 17.566,0l9.615,-8.037a9.007,9.007 0 0 0 3.2,-6.908l0,-4.622c0,-0.266 -0.013,-0.526 -0.032,-0.792a11.777,11.777 0 0 1 0.908,-5.791a17.122,17.122 0 0 0 -3.3,-18.976a16.553,16.553 0 0 0 -3.936,-2.985a1.76,1.76 0 0 0 -1.683,0a16.554,16.554 0 0 0 -3.944,2.98a16.916,16.916 0 0 0 -3.62,5.577a6.271,6.271 0 0 1 -5.944,3.863l-0.1,0a6.28,6.28 0 0 1 -5.944,-3.863a16.943,16.943 0 0 0 -3.62,-5.583a16.386,16.386 0 0 0 -3.94,-2.963a1.76,1.76 0 0 0 -1.683,0a16.554,16.554 0 0 0 -3.943,2.98a17.122,17.122 0 0 0 -3.3,18.976a11.683,11.683 0 0 1 0.918,5.785zm33.539,-21.963c0.064,-0.065 0.127,-0.136 0.191,-0.2a12.962,12.962 0 0 1 2.242,-1.831a13.147,13.147 0 0 1 6,10.589a13.345,13.345 0 0 1 -1.69,7.053l0,0c-0.07,-0.071 -0.14,-0.143 -0.216,-0.214c-0.025,-0.019 -0.044,-0.045 -0.07,-0.065c-0.057,-0.058 -0.121,-0.11 -0.184,-0.169a0.956,0.956 0 0 0 -0.083,-0.071c-0.057,-0.052 -0.121,-0.1 -0.178,-0.156a0.857,0.857 0 0 0 -0.089,-0.071l-0.178,-0.143l-0.1,-0.078c-0.057,-0.045 -0.121,-0.091 -0.178,-0.136a0.97,0.97 0 0 0 -0.1,-0.071l-0.184,-0.13c-0.032,-0.026 -0.07,-0.045 -0.1,-0.071c-0.063,-0.045 -0.133,-0.084 -0.2,-0.13l-0.1,-0.058l-0.3,-0.175l-2.509,-1.4a8.064,8.064 0 0 1 -1.974,-12.473zm-13.769,32.473l0,0.26a3.827,3.827 0 0 1 -0.807,2.448a1.9,1.9 0 0 0 -0.431,1.03a1.878,1.878 0 0 0 1.537,2.032l0,0l0.489,0.1a5.284,5.284 0 0 0 2.02,0l0.489,-0.1a1.877,1.877 0 0 0 1.542,-2.032a1.9,1.9 0 0 0 -0.432,-1.032a3.827,3.827 0 0 1 -0.807,-2.448l0,-0.26a10.752,10.752 0 0 1 10.632,-10.866l4.458,0a1.121,1.121 0 0 1 1.111,1.136l0,4.635a5.3,5.3 0 0 1 -1.88,4.058l-9.615,8.037a10.13,10.13 0 0 1 -13.006,0l-9.621,-8.037a5.3,5.3 0 0 1 -1.88,-4.058l0,-4.621a1.143,1.143 0 0 1 1.124,-1.149l4.446,0a10.748,10.748 0 0 1 10.631,10.867zm-18.6,-23.917a13.249,13.249 0 0 1 3.753,-8.758a12.963,12.963 0 0 1 2.242,-1.831a13.206,13.206 0 0 1 2.247,1.831c0.063,0.065 0.127,0.136 0.191,0.2a8.076,8.076 0 0 1 -1.975,12.484l-2.509,1.4l-0.3,0.175c-0.032,0.019 -0.057,0.039 -0.089,0.058c-0.07,0.045 -0.14,0.084 -0.2,0.13c-0.032,0.019 -0.064,0.045 -0.1,0.065c-0.063,0.045 -0.127,0.084 -0.191,0.13c-0.032,0.026 -0.063,0.045 -0.1,0.071c-0.064,0.045 -0.127,0.091 -0.184,0.136c-0.032,0.026 -0.064,0.045 -0.1,0.071c-0.064,0.045 -0.121,0.1 -0.184,0.143l-0.089,0.071c-0.064,0.052 -0.121,0.1 -0.178,0.156a0.957,0.957 0 0 1 -0.083,0.071a2.207,2.207 0 0 0 -0.178,0.169a0.731,0.731 0 0 0 -0.07,0.071c-0.07,0.071 -0.14,0.136 -0.21,0.208l0,0a13.312,13.312 0 0 1 -1.688,-7.051l-0.005,0z" class="a"/>
   <path id="svg_3" d="m56.2095,51.61361a1.846,1.846 0 1 0 -1.556,-1.594a1.83,1.83 0 0 0 1.556,1.594z" class="a"/>
   <path id="svg_4" d="m38.17351,51.61361a1.846,1.846 0 1 0 -1.556,-1.594a1.83,1.83 0 0 0 1.556,1.594z" class="a"/>
  </g>
 </g>
</svg>